<svg width="34" height="26" viewBox="0 0 34 26" fill="none" xmlns="http://www.w3.org/2000/svg">
<path fill-rule="evenodd" clip-rule="evenodd" d="M21.1032 19.1299H33.1517C33.553 19.1299 33.8795 19.5272 33.8795 20.0156V22.1081V22.8288V25.3956C33.8795 25.7295 33.6574 26 33.3832 26C33.1091 26 32.887 25.7295 32.887 25.3956V23.4332H27.5586C27.2845 23.4332 27.0623 23.1627 27.0623 22.8288C27.0623 22.495 27.2845 22.2245 27.5586 22.2245H32.887V22.1081V20.3387H21.1032V22.2245H25.538C25.8122 22.2245 26.0343 22.495 26.0343 22.8288C26.0343 23.1627 25.8122 23.4332 25.538 23.4332H21.1032V24.54C21.1032 25.1489 20.6952 25.6442 20.1936 25.6442H10.5516C4.73347 25.6442 0 19.8922 0 12.8221C0 5.75199 4.73347 0 10.5516 0C15.1993 0 19.1544 3.67052 20.5578 8.75128H22.3519C22.7838 8.75128 23.1349 9.13581 23.2258 9.70825L23.9051 14.0052C23.963 14.367 23.9037 14.702 23.7378 14.9471C23.5786 15.1824 23.3358 15.312 23.0543 15.312H21.1032V19.1299ZM22.9099 14.1033L22.2548 9.9599H20.838C21.0113 10.8805 21.1032 11.8386 21.1032 12.8221V14.1033H22.9099ZM1.0054 13.4265H2.81346L2.87844 13.427C2.89068 13.4271 2.90351 13.4273 2.91688 13.4273C3.05081 13.4273 3.2341 13.4122 3.38583 13.2245C3.55047 13.0209 3.54557 12.7793 3.54286 12.6495C3.542 12.6075 3.54114 12.5641 3.54286 12.507C3.59136 10.8882 4.01499 9.33025 4.76801 8.00148C4.92371 7.72678 4.867 7.35039 4.64143 7.16078C4.41592 6.97117 4.1067 7.04023 3.95107 7.31493C3.12856 8.76643 2.64988 10.4569 2.56082 12.2177H1.0054C1.25659 6.29357 5.17893 1.52861 10.0553 1.22418V3.11355C8.49224 3.22918 7.00836 3.89099 5.75197 5.03539C5.53249 5.23523 5.48762 5.61404 5.65179 5.88132C5.74926 6.04007 5.89848 6.12371 6.04961 6.12371C6.15304 6.12371 6.25732 6.08455 6.34645 6.00332C7.49346 4.9586 8.85718 4.37302 10.2907 4.30976C10.3379 4.30765 10.3751 4.30866 10.4045 4.30945L10.407 4.30952L10.4094 4.30957C10.5176 4.31193 10.7157 4.31626 10.8816 4.11669C11.051 3.91326 11.0494 3.67147 11.0482 3.49485V3.49477L11.0479 1.22418C16.089 1.53901 20.1106 6.62065 20.1106 12.822V19.7341V21.3362H10.9324C10.4487 21.3362 10.0553 21.8149 10.0553 22.4032V24.4199C5.179 24.1155 1.25665 19.3506 1.0054 13.4265ZM11.0479 24.4355H20.1107V22.8288V22.545H11.0479V24.4355Z" fill="black"/>
<path fill-rule="evenodd" clip-rule="evenodd" d="M15.3338 19.9333H10.5885C7.47442 19.9333 4.94092 17.0169 4.94092 13.4322C4.94092 9.84872 7.47442 6.93333 10.5885 6.93333C13.7015 6.93333 16.2341 9.8488 16.2341 13.4322V18.8937C16.2341 19.4669 15.8302 19.9333 15.3338 19.9333ZM15.2306 13.4322C15.2306 10.487 13.1481 8.09082 10.5885 8.09082C8.02774 8.09082 5.94439 10.487 5.94439 13.4322C5.94439 16.3787 8.02774 18.7759 10.5885 18.7759H15.2306V13.4322Z" fill="black"/>
<path fill-rule="evenodd" clip-rule="evenodd" d="M12.3915 15.6H8.78338C8.2214 15.6 7.76416 15.1112 7.76416 14.5103V12.354C7.76416 11.7545 8.2214 11.2667 8.78338 11.2667H12.3915C12.9535 11.2667 13.4107 11.7545 13.4107 12.354V14.5103C13.4107 15.1112 12.9535 15.6 12.3915 15.6ZM12.2771 12.4773H8.8978V14.3894H12.2771V12.4773Z" fill="black"/>
</svg>
